<?xml version="1.0" standalone="no"?>
<!DOCTYPE svg PUBLIC "-//W3C//DTD SVG 20010904//EN"
 "http://www.w3.org/TR/2001/REC-SVG-20010904/DTD/svg10.dtd">
<svg version="1.0" xmlns="http://www.w3.org/2000/svg"
 width="1200.000000pt" height="1200.000000pt" viewBox="0 0 1200.000000 1200.000000"
 preserveAspectRatio="xMidYMid meet">

<g transform="translate(0.000000,1200.000000) scale(0.100000,-0.100000)"
fill="#000000" stroke="none">
<path d="M5260 8811 c-159 -35 -278 -96 -393 -202 -227 -207 -320 -522 -244
-820 73 -284 270 -491 557 -585 79 -26 97 -28 245 -28 153 0 164 1 255 32 95
31 212 96 279 154 114 97 212 243 256 381 148 461 -126 951 -593 1063 -106 25
-261 27 -362 5z m150 -55 c0 -2 -6 -38 -14 -79 -19 -95 -67 -213 -122 -297
-76 -117 -59 -120 -219 41 l-140 140 30 25 c95 79 252 147 380 164 82 10 85
11 85 6z m155 -11 c73 -10 200 -61 276 -111 111 -73 126 -42 -162 -330 l-254
-254 -88 88 -88 89 46 56 c88 109 163 283 180 420 6 46 11 57 24 53 9 -2 39
-7 66 -11z m-443 -542 c-50 -42 -132 -94 -185 -119 -62 -28 -197 -64 -240 -64
l-30 0 7 61 c14 121 68 256 149 372 l41 58 143 -143 143 -142 -28 -23z m927
222 c62 -88 113 -218 126 -321 l6 -51 -49 -7 c-73 -9 -159 -34 -227 -63 -69
-31 -188 -104 -225 -139 l-26 -24 -89 90 -90 90 255 255 255 255 18 -22 c10
-13 30 -41 46 -63z m-759 -340 l85 -85 -255 -255 -255 -256 -23 28 c-75 89
-133 213 -159 341 -18 86 -17 86 61 96 118 13 294 90 401 175 28 22 52 40 55
40 3 1 44 -37 90 -84z m889 -172 c-15 -132 -71 -274 -149 -372 l-42 -53 -139
138 c-77 76 -139 142 -139 146 0 14 127 98 201 133 75 35 203 73 250 74 l25 1
-7 -67z m-660 -57 c54 -55 81 -88 76 -96 -4 -7 -30 -42 -57 -77 -26 -36 -58
-83 -70 -106 -34 -68 -78 -207 -85 -270 -3 -35 -11 -61 -19 -64 -8 -3 -49 2
-91 11 -85 17 -227 82 -307 142 l-49 36 254 254 c140 140 256 254 259 254 3 0
43 -38 89 -84z m390 -446 c-98 -79 -213 -132 -337 -156 -110 -21 -122 -20
-122 14 0 94 83 296 164 400 l41 52 142 -142 143 -143 -31 -25z"/>
<path d="M6785 8743 c-143 -16 -254 -84 -334 -204 -116 -173 -94 -401 51 -556
79 -83 159 -122 283 -138 205 -26 418 124 475 335 27 101 6 253 -46 337 -97
153 -269 244 -429 226z m150 -89 c53 -14 115 -48 115 -62 0 -17 -97 -61 -162
-73 -51 -9 -79 -9 -125 0 -69 13 -165 58 -161 74 6 19 111 68 164 76 56 9 98
5 169 -15z m227 -181 c69 -130 57 -278 -33 -404 -20 -28 -22 -29 -43 -15 -157
114 -365 114 -522 0 -21 -14 -23 -13 -57 41 -44 71 -61 138 -55 224 5 67 46
178 74 202 10 8 34 0 96 -30 96 -47 177 -62 270 -49 60 8 160 48 203 81 25 19
34 12 67 -50z m-220 -424 c35 -11 74 -28 87 -39 l25 -18 -35 -21 c-19 -12 -56
-28 -83 -36 -96 -29 -224 -14 -305 36 l-35 21 25 18 c38 30 139 59 201 60 32
0 85 -9 120 -21z"/>
<path d="M6765 7705 c-211 -39 -423 -150 -626 -329 -271 -239 -440 -615 -426
-946 9 -219 84 -336 244 -383 232 -69 589 13 868 198 264 176 486 491 554 787
56 239 27 408 -93 544 -107 121 -301 169 -521 129z m560 -580 l-7 -68 -284
284 c-156 156 -282 285 -280 286 2 2 30 7 62 12 l59 8 229 -227 229 -228 -8
-67z m-255 499 c125 -37 206 -122 245 -257 9 -32 15 -60 13 -62 -2 -3 -80 72
-173 165 -94 94 -163 170 -154 170 8 0 39 -7 69 -16z m190 -720 c-61 -153
-168 -320 -284 -442 -105 -112 -280 -225 -445 -289 l-93 -36 -306 306 -306
306 18 56 c26 85 119 262 176 337 140 185 350 344 579 439 l66 27 313 -312
314 -313 -32 -79z m-1176 -513 c214 -214 265 -270 250 -274 -11 -3 -39 -9 -63
-12 l-44 -7 -222 222 -222 221 8 47 c4 26 8 53 8 60 1 6 4 12 9 12 4 0 128
-121 276 -269z m-126 -124 l173 -173 -60 7 c-168 19 -252 93 -280 244 -11 56
-14 95 -8 95 1 0 80 -78 175 -173z"/>
<path d="M6818 7183 l-48 -47 -43 42 c-45 44 -67 51 -87 27 -10 -12 -4 -24 34
-67 l46 -53 -30 -30 -30 -29 -44 43 c-45 45 -70 50 -90 19 -9 -15 -3 -26 37
-66 l47 -48 -32 -32 -32 -32 -47 46 c-48 47 -73 53 -86 18 -4 -10 10 -31 41
-63 l46 -47 -32 -32 -32 -32 -48 47 c-40 40 -51 46 -66 37 -31 -20 -26 -45 19
-90 l43 -44 -29 -30 -30 -30 -53 46 c-43 38 -55 44 -67 34 -24 -20 -17 -42 27
-87 l42 -43 -48 -49 c-49 -50 -56 -75 -24 -95 15 -9 26 -2 67 38 l50 49 45
-41 c48 -44 80 -53 90 -26 10 27 7 33 -36 80 l-41 45 28 29 29 30 48 -47 c40
-39 51 -46 66 -37 31 20 26 45 -19 90 l-43 44 29 30 28 30 48 -45 c53 -50 60
-52 83 -29 24 23 21 30 -31 79 l-48 44 29 30 29 31 48 -45 c27 -25 52 -45 57
-45 5 0 17 9 27 20 18 20 18 22 -30 70 l-49 50 32 32 32 32 43 -42 c45 -44 67
-51 86 -28 16 18 5 39 -43 86 l-36 34 52 53 c44 44 51 56 42 71 -20 31 -47 25
-96 -25z"/>
<path d="M5019 7066 c-151 -42 -276 -171 -319 -328 -7 -29 -11 -82 -8 -136 3
-75 9 -99 40 -163 46 -98 119 -171 217 -217 64 -31 88 -37 163 -40 100 -5 156
7 238 50 117 62 202 171 230 299 63 282 -153 551 -439 548 -42 0 -97 -7 -122
-13z m95 -102 c21 -158 185 -324 346 -352 l45 -8 -2 -42 c-4 -87 -67 -186
-157 -246 -48 -32 -171 -75 -182 -63 -2 2 -11 30 -20 63 -21 82 -49 135 -106
198 -55 62 -159 120 -234 132 l-46 7 6 44 c18 135 132 261 268 297 75 21 75
21 82 -30z m183 9 c101 -47 188 -155 209 -263 l7 -33 -39 7 c-57 10 -140 55
-185 99 -43 43 -88 128 -99 187 l-7 39 31 -6 c17 -3 54 -17 83 -30z m-419
-430 c97 -45 184 -154 199 -251 l6 -34 -34 7 c-131 28 -252 151 -283 287 -6
26 -5 27 26 21 18 -3 57 -17 86 -30z"/>
<path d="M3550 5714 c-14 -2 -56 -9 -95 -15 -148 -24 -310 -119 -376 -222
-110 -169 -128 -400 -49 -611 29 -76 140 -196 220 -236 116 -59 206 -82 336
-87 110 -5 129 -3 214 21 121 35 181 66 248 130 103 96 145 182 167 341 16
111 16 127 1 213 -12 71 -26 111 -58 169 -81 149 -187 233 -340 272 -73 19
-221 33 -268 25z m152 -284 c54 -15 141 -99 168 -161 27 -65 30 -183 6 -255
-20 -61 -85 -137 -140 -167 -59 -31 -180 -30 -254 2 -69 31 -144 112 -163 178
-22 76 -16 178 14 243 27 58 36 71 79 109 58 51 199 76 290 51z"/>
<path d="M4597 5681 c-151 -50 -212 -100 -258 -210 -27 -65 -31 -84 -26 -137
5 -66 43 -163 80 -203 62 -67 172 -108 325 -120 116 -10 215 -40 232 -71 14
-27 -7 -78 -41 -95 -34 -18 -199 -20 -263 -4 l-44 11 -4 54 c-3 30 -10 60 -16
66 -18 18 -232 11 -254 -9 -20 -18 -23 -65 -11 -197 l6 -77 59 -40 c36 -25 95
-51 154 -69 88 -28 109 -30 243 -30 159 0 216 11 309 56 80 39 131 89 166 164
25 54 30 77 30 140 -1 92 -24 149 -88 218 -76 81 -186 120 -399 140 -122 12
-152 29 -152 88 0 32 5 42 34 61 29 19 47 23 117 23 112 0 134 -9 134 -55 0
-72 5 -75 149 -75 l129 0 6 31 c3 17 6 74 6 126 0 94 0 95 -32 125 -74 69
-199 107 -378 114 -119 4 -130 3 -213 -25z"/>
<path d="M1800 5691 c-24 -6 -25 -11 -28 -83 -1 -42 1 -98 5 -124 l8 -49 60
-5 60 -5 0 -292 c0 -160 -3 -295 -7 -298 -4 -4 -33 -8 -65 -9 l-58 -1 -1 -116
c-1 -64 2 -122 6 -130 7 -10 67 -12 292 -10 239 2 285 4 295 17 7 9 11 57 12
120 l0 105 -27 10 c-15 6 -46 8 -69 4 l-43 -6 -1 40 c-1 23 -2 47 -3 54 -1 9
41 13 164 18 159 5 168 6 243 38 108 46 153 84 196 161 35 63 36 69 36 165 -1
145 -21 205 -93 275 -44 43 -74 62 -132 84 l-75 29 -300 3 c-165 2 -334 5
-375 8 -41 2 -86 1 -100 -3z m684 -295 c38 -16 76 -60 76 -88 0 -34 -27 -73
-68 -96 -38 -21 -47 -22 -149 -15 l-108 8 -3 89 c-2 49 -1 95 2 103 7 18 204
18 250 -1z"/>
<path d="M7960 5691 c-24 -6 -25 -11 -28 -83 -1 -42 1 -98 5 -124 l8 -49 60
-5 60 -5 0 -292 c0 -160 -3 -295 -7 -298 -4 -4 -33 -8 -65 -9 l-58 -1 -1 -116
c-1 -64 2 -122 6 -130 7 -10 67 -12 292 -10 239 2 285 4 295 17 7 9 11 57 12
120 l0 105 -27 10 c-15 6 -46 8 -69 4 l-43 -6 -1 40 c-1 23 -2 47 -3 54 -1 9
41 13 164 18 159 5 168 6 243 38 108 46 153 84 196 161 35 63 36 69 36 165 -1
145 -21 205 -93 275 -44 43 -74 62 -132 84 l-75 29 -300 3 c-165 2 -334 5
-375 8 -41 2 -86 1 -100 -3z m684 -295 c38 -16 76 -60 76 -88 0 -34 -27 -73
-68 -96 -38 -21 -47 -22 -149 -15 l-108 8 -3 89 c-2 49 -1 95 2 103 7 18 204
18 250 -1z"/>
<path d="M9108 5693 l-28 -4 1 -102 c1 -147 3 -151 69 -155 30 -2 58 -9 62
-15 9 -14 11 -475 2 -540 l-7 -46 -61 -3 -61 -3 -3 -123 c-3 -120 -2 -122 20
-130 13 -4 147 -5 298 -2 l275 5 8 110 c7 105 6 111 -15 128 -16 13 -35 17
-72 15 l-51 -3 0 50 0 50 160 6 c118 4 173 10 210 23 130 47 200 104 243 196
22 47 26 68 25 145 0 100 -20 183 -55 235 -35 51 -112 105 -187 131 -61 20
-87 22 -361 25 -162 2 -329 5 -370 7 -41 2 -87 2 -102 0z m688 -299 c70 -33
87 -108 37 -156 -43 -41 -72 -48 -187 -41 l-106 6 0 97 c0 53 3 100 7 103 3 4
53 7 111 7 75 0 113 -4 138 -16z"/>
<path d="M5340 5680 c-13 -8 -15 -41 -12 -212 1 -112 6 -206 10 -209 11 -10
237 -18 252 -9 8 5 16 36 19 81 6 73 6 73 39 80 58 12 62 -1 61 -189 -1 -92
-4 -219 -8 -282 l-6 -115 -60 -5 -60 -5 0 -125 0 -125 285 4 c157 2 286 4 286
5 1 0 3 55 5 121 l4 120 -61 3 -61 3 -5 62 c-2 34 -1 165 2 291 l5 230 29 7
c41 11 52 -2 59 -69 10 -97 2 -92 142 -92 87 0 126 4 131 12 8 13 8 404 0 416
-7 11 -1039 13 -1056 2z"/>
<path d="M6555 5682 c-43 -9 -46 -20 -41 -129 3 -57 8 -108 11 -112 2 -5 30
-12 60 -16 30 -3 55 -7 56 -8 1 -1 3 -103 5 -227 5 -238 16 -313 58 -405 43
-95 166 -184 306 -220 94 -25 265 -23 350 4 152 48 270 161 316 301 15 49 24
240 24 538 0 17 6 18 50 14 76 -7 80 0 80 134 0 73 -4 115 -11 120 -7 4 -132
9 -279 11 -326 6 -303 15 -295 -131 4 -55 8 -107 10 -113 3 -9 25 -13 65 -13
l60 0 -1 -162 c-1 -241 -10 -319 -43 -363 -36 -46 -67 -66 -121 -76 -114 -21
-192 24 -234 135 -20 53 -21 74 -19 264 l3 207 54 -3 c29 -1 60 3 67 9 19 16
20 224 2 236 -14 8 -499 13 -533 5z"/>
<path d="M2778 3989 c-61 -9 -105 -41 -129 -93 -17 -37 -19 -70 -19 -322 0
-274 1 -282 23 -325 30 -58 89 -89 169 -89 32 0 73 6 91 14 42 17 83 66 97
114 13 49 13 525 0 574 -12 41 -50 92 -84 110 -32 17 -95 25 -148 17z m86
-135 c14 -13 16 -52 16 -276 0 -229 -2 -264 -17 -280 -31 -35 -86 -16 -99 35
-3 13 -4 131 -2 263 2 186 6 245 17 257 17 21 65 22 85 1z"/>
<path d="M2275 3976 c-38 -17 -60 -42 -80 -89 -12 -30 -15 -87 -15 -315 0
-268 1 -279 23 -322 57 -115 260 -123 328 -14 23 37 24 49 27 217 l4 177 -96
0 -96 0 0 -60 0 -60 30 0 30 0 0 -98 c0 -83 -3 -102 -18 -115 -23 -21 -52 -22
-78 -3 -18 13 -19 30 -22 268 -3 282 1 301 54 306 47 5 64 -18 64 -89 l0 -59
65 0 65 0 0 68 c0 78 -27 143 -73 176 -36 26 -166 34 -212 12z"/>
<path d="M3375 3976 c-42 -18 -82 -68 -95 -118 -8 -26 -10 -135 -8 -307 3
-297 5 -305 75 -358 30 -23 48 -28 107 -31 93 -4 149 22 183 87 22 43 23 51
23 325 0 252 -2 285 -19 322 -29 64 -72 88 -161 92 -48 1 -86 -3 -105 -12z
m139 -128 c14 -19 16 -63 16 -275 0 -240 -1 -254 -20 -273 -24 -24 -48 -25
-78 -4 -22 15 -22 18 -22 276 0 229 2 264 17 280 23 25 68 23 87 -4z"/>
<path d="M4705 3976 c-62 -27 -95 -93 -95 -188 1 -90 26 -137 130 -244 49 -50
94 -103 100 -118 17 -44 13 -111 -8 -129 -47 -43 -102 -1 -102 77 l0 36 -66 0
-67 0 7 -62 c16 -135 69 -188 192 -188 133 0 203 87 191 235 -6 83 -32 129
-127 221 -110 108 -142 178 -104 232 10 14 26 22 44 22 37 0 60 -32 60 -82 l0
-38 66 0 67 0 -7 61 c-7 76 -40 136 -86 161 -42 22 -149 24 -195 4z"/>
<path d="M3742 3633 c3 -330 4 -350 24 -388 61 -117 272 -114 332 5 22 43 22
51 22 388 l0 343 -62 -3 -63 -3 -3 -329 c-2 -289 -4 -332 -19 -348 -17 -19
-49 -23 -70 -10 -28 18 -33 70 -33 378 l0 314 -65 0 -66 0 3 -347z"/>
<path d="M4170 3920 l0 -60 65 0 65 0 2 -342 3 -343 68 -3 67 -3 0 346 0 345
65 0 65 0 0 60 0 60 -200 0 -200 0 0 -60z"/>
<path d="M5050 3575 l0 -405 70 0 70 0 0 405 0 405 -70 0 -70 0 0 -405z"/>
<path d="M5280 3575 l0 -407 139 4 c122 3 143 6 167 24 73 54 84 104 83 383 0
285 -8 320 -83 375 -24 18 -45 21 -167 24 l-139 4 0 -407z m234 263 c13 -19
16 -62 16 -265 0 -230 -1 -244 -20 -263 -13 -13 -33 -20 -60 -20 l-40 0 0 285
0 285 44 0 c35 0 48 -5 60 -22z"/>
<path d="M5740 3575 l0 -405 180 0 180 0 0 60 0 60 -110 0 -110 0 0 120 0 120
85 0 85 0 0 65 0 65 -85 0 -85 0 0 100 0 100 110 0 110 0 0 60 0 60 -180 0
-180 0 0 -405z"/>
<path d="M6440 3971 c0 -13 -118 -747 -125 -778 -5 -22 -3 -23 59 -23 l64 0 6
48 c4 26 10 62 13 80 l5 32 68 0 68 0 7 -57 c12 -107 9 -103 81 -103 60 0 64
1 64 23 -1 12 -29 193 -63 402 l-63 380 -92 3 c-57 2 -92 -1 -92 -7z m116
-349 c13 -86 24 -163 24 -169 0 -9 -17 -13 -50 -13 -33 0 -50 4 -50 13 0 32
44 336 49 332 2 -3 15 -76 27 -163z"/>
<path d="M6810 3575 l0 -405 60 0 60 0 2 273 3 272 70 -272 70 -273 67 0 68 0
0 405 0 405 -60 0 -60 0 -1 -217 -1 -218 -55 218 -56 217 -84 0 -83 0 0 -405z"/>
<path d="M7300 3576 l0 -406 128 0 c151 0 195 15 233 76 24 39 24 40 24 329 0
272 -1 292 -20 324 -40 69 -60 76 -221 79 l-144 3 0 -405z m234 269 c24 -25
28 -67 24 -299 -3 -215 -3 -218 -27 -237 -13 -10 -38 -19 -57 -19 l-34 0 0
285 0 285 39 0 c22 0 46 -7 55 -15z"/>
<path d="M7950 3576 l0 -406 70 0 70 0 0 164 0 164 70 4 c74 4 105 19 144 72
19 25 21 42 21 166 0 124 -2 141 -21 166 -47 63 -63 69 -215 72 l-139 4 0
-406z m234 262 c11 -16 16 -46 16 -98 0 -95 -14 -120 -71 -120 l-39 0 0 120 0
120 39 0 c30 0 44 -6 55 -22z"/>
<path d="M8400 3575 l0 -405 170 0 170 0 0 60 0 60 -105 0 -105 0 0 345 0 345
-65 0 -65 0 0 -405z"/>
<path d="M8832 3587 c-35 -215 -63 -398 -62 -404 0 -9 19 -13 59 -13 66 0 64
-4 76 103 l7 57 68 0 68 0 5 -32 c3 -18 9 -54 13 -80 l6 -48 69 0 c67 0 69 1
64 23 -8 34 -125 760 -125 775 0 9 -25 12 -92 12 l-93 0 -63 -393z m197 -124
c1 -21 -4 -23 -49 -23 -27 0 -50 4 -50 9 0 19 41 297 47 321 4 16 14 -29 29
-130 12 -85 23 -165 23 -177z"/>
<path d="M9172 3968 c3 -7 37 -110 77 -229 l71 -217 0 -176 0 -176 70 0 70 0
0 178 0 177 75 225 c41 123 75 226 75 228 0 1 -30 2 -67 0 l-67 -3 -40 -139
c-22 -77 -41 -135 -43 -130 -2 5 -20 68 -41 139 l-38 130 -73 3 c-57 2 -72 0
-69 -10z"/>
<path d="M9674 3708 c3 -150 9 -285 12 -300 6 -26 10 -28 54 -28 l47 0 7 63
c3 34 9 169 13 300 l6 237 -73 0 -73 0 7 -272z"/>
<path d="M9677 3293 c-4 -3 -7 -33 -7 -65 l0 -58 65 0 65 0 0 65 0 65 -58 0
c-32 0 -62 -3 -65 -7z"/>
</g>
</svg>
